<?xml version="1.0" encoding="UTF-8" ?>
<svg version="1.1" width="54" height="22" xmlns="http://www.w3.org/2000/svg" shape-rendering="crispEdges">
<rect x="5" y="0" width="44" height="1" fill="#FBFBFB" />
<rect x="4" y="1" width="1" height="1" fill="#FBFBFB" />
<rect x="5" y="1" width="44" height="3" fill="#010100" />
<rect x="49" y="1" width="1" height="1" fill="#FBFBFB" />
<rect x="3" y="2" width="1" height="1" fill="#FBFBFB" />
<rect x="4" y="2" width="1" height="4" fill="#010100" />
<rect x="49" y="2" width="1" height="4" fill="#010100" />
<rect x="50" y="2" width="1" height="1" fill="#FBFBFB" />
<rect x="2" y="3" width="1" height="1" fill="#FBFBFB" />
<rect x="3" y="3" width="1" height="16" fill="#010100" />
<rect x="50" y="3" width="1" height="16" fill="#010100" />
<rect x="51" y="3" width="1" height="1" fill="#FBFBFB" />
<rect x="1" y="4" width="1" height="1" fill="#FBFBFB" />
<rect x="2" y="4" width="1" height="14" fill="#010100" />
<rect x="5" y="4" width="1" height="1" fill="#010100" />
<rect x="6" y="4" width="42" height="1" fill="#161616" />
<rect x="48" y="4" width="1" height="1" fill="#010100" />
<rect x="51" y="4" width="1" height="14" fill="#010100" />
<rect x="52" y="4" width="1" height="1" fill="#FBFBFB" />
<rect x="0" y="5" width="1" height="12" fill="#FBFBFB" />
<rect x="1" y="5" width="1" height="11" fill="#010100" />
<rect x="5" y="5" width="6" height="12" fill="#161616" />
<rect x="11" y="5" width="6" height="2" fill="#29EC4A" />
<rect x="17" y="5" width="2" height="13" fill="#161616" />
<rect x="19" y="5" width="2" height="6" fill="#29EC4A" />
<rect x="21" y="5" width="5" height="10" fill="#161616" />
<rect x="26" y="5" width="7" height="2" fill="#29EC4A" />
<rect x="33" y="5" width="2" height="13" fill="#161616" />
<rect x="35" y="5" width="2" height="6" fill="#29EC4A" />
<rect x="37" y="5" width="4" height="4" fill="#161616" />
<rect x="41" y="5" width="2" height="6" fill="#29EC4A" />
<rect x="43" y="5" width="6" height="12" fill="#161616" />
<rect x="52" y="5" width="1" height="12" fill="#010100" />
<rect x="53" y="5" width="1" height="12" fill="#FBFBFB" />
<rect x="4" y="6" width="1" height="10" fill="#161616" />
<rect x="49" y="6" width="1" height="10" fill="#161616" />
<rect x="11" y="7" width="2" height="4" fill="#29EC4A" />
<rect x="13" y="7" width="2" height="2" fill="#161616" />
<rect x="15" y="7" width="2" height="4" fill="#29EC4A" />
<rect x="26" y="7" width="2" height="4" fill="#29EC4A" />
<rect x="28" y="7" width="3" height="4" fill="#161616" />
<rect x="31" y="7" width="2" height="4" fill="#29EC4A" />
<rect x="13" y="9" width="2" height="2" fill="#29EC4A" />
<rect x="37" y="9" width="4" height="2" fill="#29EC4A" />
<rect x="11" y="11" width="2" height="3" fill="#4DB14E" />
<rect x="13" y="11" width="4" height="7" fill="#161616" />
<rect x="19" y="11" width="2" height="3" fill="#4DB14E" />
<rect x="26" y="11" width="7" height="2" fill="#4DB14E" />
<rect x="35" y="11" width="3" height="7" fill="#161616" />
<rect x="38" y="11" width="2" height="3" fill="#4DB14E" />
<rect x="40" y="11" width="3" height="7" fill="#161616" />
<rect x="26" y="13" width="2" height="1" fill="#4DB14E" />
<rect x="28" y="13" width="3" height="5" fill="#161616" />
<rect x="31" y="13" width="2" height="1" fill="#4DB14E" />
<rect x="11" y="14" width="2" height="3" fill="#028F47" />
<rect x="19" y="14" width="2" height="3" fill="#028F47" />
<rect x="26" y="14" width="2" height="3" fill="#028F47" />
<rect x="31" y="14" width="2" height="3" fill="#028F47" />
<rect x="38" y="14" width="2" height="3" fill="#028F47" />
<rect x="21" y="15" width="4" height="2" fill="#028F47" />
<rect x="25" y="15" width="1" height="3" fill="#161616" />
<rect x="1" y="16" width="1" height="1" fill="#161616" />
<rect x="4" y="16" width="1" height="4" fill="#010100" />
<rect x="49" y="16" width="1" height="4" fill="#010100" />
<rect x="1" y="17" width="1" height="1" fill="#FBFBFB" />
<rect x="5" y="17" width="1" height="4" fill="#010100" />
<rect x="6" y="17" width="7" height="1" fill="#161616" />
<rect x="19" y="17" width="6" height="1" fill="#161616" />
<rect x="26" y="17" width="2" height="1" fill="#161616" />
<rect x="31" y="17" width="2" height="1" fill="#161616" />
<rect x="38" y="17" width="2" height="1" fill="#161616" />
<rect x="43" y="17" width="5" height="1" fill="#161616" />
<rect x="48" y="17" width="1" height="4" fill="#010100" />
<rect x="52" y="17" width="1" height="1" fill="#FBFBFB" />
<rect x="2" y="18" width="1" height="1" fill="#FBFBFB" />
<rect x="6" y="18" width="42" height="3" fill="#010100" />
<rect x="51" y="18" width="1" height="1" fill="#FBFBFB" />
<rect x="3" y="19" width="1" height="1" fill="#FBFBFB" />
<rect x="50" y="19" width="1" height="1" fill="#FBFBFB" />
<rect x="4" y="20" width="1" height="1" fill="#FBFBFB" />
<rect x="49" y="20" width="1" height="1" fill="#FBFBFB" />
<rect x="5" y="21" width="44" height="1" fill="#FBFBFB" />
</svg>