<?xml version="1.0" encoding="UTF-8" ?>
<svg version="1.1" width="256" height="256" xmlns="http://www.w3.org/2000/svg" shape-rendering="crispEdges">
<rect x="162" y="0" width="69" height="16" fill="#060608" />
<rect x="111" y="16" width="68" height="18" fill="#060608" />
<rect x="179" y="16" width="35" height="16" fill="#9CDB43" />
<rect x="214" y="16" width="17" height="103" fill="#060608" />
<rect x="179" y="32" width="18" height="17" fill="#1A7A3E" />
<rect x="197" y="32" width="17" height="35" fill="#9CDB43" />
<rect x="75" y="34" width="36" height="17" fill="#060608" />
<rect x="111" y="34" width="68" height="15" fill="#9CDB43" />
<rect x="111" y="49" width="51" height="2" fill="#9CDB43" />
<rect x="162" y="49" width="17" height="18" fill="#060608" />
<rect x="179" y="49" width="18" height="87" fill="#9CDB43" />
<rect x="60" y="51" width="18" height="17" fill="#060608" />
<rect x="78" y="51" width="33" height="68" fill="#9CDB43" />
<rect x="111" y="51" width="17" height="17" fill="#1A7A3E" />
<rect x="128" y="51" width="34" height="16" fill="#9CDB43" />
<rect x="128" y="67" width="17" height="17" fill="#9CDB43" />
<rect x="145" y="67" width="17" height="17" fill="#060608" />
<rect x="162" y="67" width="17" height="87" fill="#9CDB43" />
<rect x="197" y="67" width="17" height="52" fill="#1A7A3E" />
<rect x="43" y="68" width="17" height="35" fill="#060608" />
<rect x="60" y="68" width="18" height="51" fill="#9CDB43" />
<rect x="111" y="68" width="17" height="16" fill="#9CDB43" />
<rect x="111" y="84" width="17" height="17" fill="#1A7A3E" />
<rect x="128" y="84" width="17" height="17" fill="#060608" />
<rect x="145" y="84" width="17" height="35" fill="#9CDB43" />
<rect x="111" y="101" width="17" height="18" fill="#060608" />
<rect x="128" y="101" width="17" height="18" fill="#9CDB43" />
<rect x="26" y="103" width="17" height="68" fill="#060608" />
<rect x="43" y="103" width="17" height="68" fill="#1A7A3E" />
<rect x="60" y="119" width="16" height="17" fill="#9CDB43" />
<rect x="76" y="119" width="17" height="17" fill="#1A7A3E" />
<rect x="93" y="119" width="18" height="17" fill="#060608" />
<rect x="111" y="119" width="51" height="17" fill="#1A7A3E" />
<rect x="197" y="119" width="17" height="35" fill="#060608" />
<rect x="60" y="136" width="16" height="35" fill="#1A7A3E" />
<rect x="76" y="136" width="17" height="35" fill="#060608" />
<rect x="93" y="136" width="69" height="18" fill="#9CDB43" />
<rect x="179" y="136" width="18" height="18" fill="#1A7A3E" />
<rect x="93" y="154" width="52" height="17" fill="#9CDB43" />
<rect x="145" y="154" width="34" height="17" fill="#1A7A3E" />
<rect x="179" y="154" width="18" height="17" fill="#060608" />
<rect x="43" y="171" width="33" height="35" fill="#060608" />
<rect x="76" y="171" width="69" height="17" fill="#1A7A3E" />
<rect x="145" y="171" width="34" height="17" fill="#060608" />
<rect x="76" y="188" width="69" height="18" fill="#060608" />
<rect x="26" y="206" width="34" height="17" fill="#060608" />
<rect x="26" y="223" width="16" height="33" fill="#060608" />
</svg>